<?xml version="1.0" encoding="UTF-8"?>
<svg id="katman_1" xmlns="http://www.w3.org/2000/svg" viewBox="0 0 512 384">
  <defs>
    <style>
      .cls-1 {
        fill: #bf1214;
      }
    </style>
  </defs>
  <path class="cls-1" d="M64,48c-8.8,0-16,7.2-16,16v22.1l172.5,141.6c20.7,17,50.4,17,71.1,0l172.4-141.6v-22.1c0-8.8-7.2-16-16-16H64ZM48,148.2v171.8c0,8.8,7.2,16,16,16h384c8.8,0,16-7.2,16-16v-171.8l-142,116.6c-38.4,31.5-93.7,31.5-132,0L48,148.2ZM0,64C0,28.7,28.7,0,64,0h384c35.3,0,64,28.7,64,64v256c0,35.3-28.7,64-64,64H64c-35.3,0-64-28.7-64-64V64Z"/>
</svg>